<svg width="37" height="37" viewBox="0 0 37 37" fill="none" xmlns="http://www.w3.org/2000/svg">
<path d="M18.2206 0C17.34 0 15.3738 0.232704 13.3563 6.54328C7.322 3.57324 5.99813 4.74288 5.3377 5.41956C4.7195 6.04725 3.48911 7.62719 6.44445 13.5183C0.171892 15.6861 0 17.8754 0 18.5C0 19.0818 0.232204 21.3353 6.42635 23.4266C3.49816 29.4708 4.90043 31.1426 5.33167 31.5866C5.73577 31.9969 7.47278 33.4237 13.302 30.4567C15.41 36.8255 17.3732 37 18.2176 37C19.0981 37 21.0613 36.7673 23.0728 30.4843C28.9955 33.4758 30.5063 32.1898 31.1004 31.5866C31.7186 30.9558 32.949 29.3789 29.9937 23.4817C36.2662 21.3139 36.4381 19.1246 36.4381 18.5C36.4381 17.9182 36.2059 15.6647 30.0118 13.5734C32.94 7.53228 31.5377 5.85742 31.1004 5.41956C30.6933 5.00927 28.9533 3.57936 23.1059 6.56165C20.9105 0.119414 19.1584 0 18.2206 0ZM6.94806 7.05462C7.14408 6.85559 7.80451 5.9952 12.907 8.06198C12.8829 8.15078 12.8557 8.23651 12.8346 8.33143C12.1018 11.0198 10.5035 12.2966 8.25082 12.9488C8.13623 12.9825 8.02767 13.0131 7.9191 13.0468C5.76291 8.00993 6.70078 7.30876 6.94806 7.05462ZM22.1198 8.72335C22.1741 8.6958 22.2254 8.6713 22.2796 8.64987C22.3128 8.72948 22.3399 8.80602 22.3701 8.88563C23.4135 11.577 25.0842 13.3805 27.7862 14.3848C27.8465 14.4093 27.9008 14.4277 27.9551 14.4491C27.9189 14.5287 27.8857 14.6022 27.8495 14.6849C26.6644 17.3181 26.589 19.8381 27.8495 22.4652C27.8767 22.5203 27.9008 22.5754 27.9279 22.6305C27.8495 22.6642 27.7681 22.6917 27.6897 22.7224C25.0239 23.7267 23.2115 25.4505 22.2736 28.2123C22.2555 28.2736 22.2314 28.3287 22.2133 28.3869C22.1349 28.3501 22.0595 28.3165 21.9751 28.2797C19.3725 27.0948 16.9238 27.0488 14.3123 28.2797C14.258 28.3073 14.2037 28.3318 14.1525 28.3532C14.1193 28.2736 14.0921 28.197 14.062 28.1113C13.0457 25.4107 11.3479 23.6164 8.64587 22.6121C8.58556 22.5876 8.53128 22.5693 8.477 22.5478C8.51017 22.4682 8.54636 22.3947 8.58254 22.3151C9.7677 19.6819 9.82198 17.1773 8.58254 14.5348C8.5554 14.4797 8.53128 14.4246 8.50414 14.3695C8.58254 14.3358 8.66397 14.3083 8.74237 14.2776C11.4112 13.2703 13.1965 11.5342 14.1645 8.78153C14.1826 8.72642 14.2067 8.6713 14.2248 8.61619C14.3032 8.64987 14.3786 8.68661 14.4631 8.71723C17.0686 9.88075 19.5113 9.95424 22.1198 8.72335ZM2.27682 18.5C2.27682 18.1754 2.11397 17.0303 7.17725 14.9115C7.22852 15.0002 7.27677 15.0921 7.32803 15.1809C8.68206 17.6059 8.43478 19.6574 7.30089 21.7334C7.24661 21.8313 7.19534 21.9263 7.14106 22.0242C2.16524 19.9758 2.27682 18.797 2.27682 18.5ZM6.94806 29.9484C6.71887 29.7157 5.80814 29.0238 7.91307 23.8889C8.00957 23.9165 8.10306 23.9441 8.20559 23.9716C10.8533 24.7157 12.1048 26.3385 12.7532 28.6257C12.7864 28.7359 12.8165 28.8431 12.8437 28.9503C7.89498 31.0752 7.15313 30.1597 6.94806 29.9484ZM18.2206 34.6883C17.9522 34.6883 16.8635 34.9669 14.6953 29.7066C14.7767 29.6606 14.8641 29.6086 14.9516 29.5626C17.34 28.1879 19.3605 28.4389 21.4051 29.5902C21.5106 29.6514 21.6132 29.7096 21.7187 29.7647C19.7797 34.8322 18.4799 34.6883 18.2206 34.6883ZM29.4961 29.9484C29.3061 30.1413 28.7271 31.1181 23.5341 28.9595C23.5613 28.8676 23.5884 28.7696 23.6126 28.6716C24.3454 25.9833 25.9437 24.7065 28.1963 24.0543C28.314 24.0206 28.4285 23.9839 28.5431 23.9532C30.6933 28.935 29.6831 29.7617 29.4961 29.9484ZM34.1643 18.5C34.1643 18.8246 34.3272 19.9697 29.2639 22.0885C29.2126 21.9998 29.1674 21.914 29.1191 21.8191C27.7651 19.3941 28.0124 17.3426 29.1463 15.2666C29.2006 15.1656 29.2548 15.0676 29.3061 14.9696C34.2789 17.0242 34.1643 18.2061 34.1643 18.5ZM29.4961 7.05462C29.7253 7.28732 30.636 7.97931 28.5311 13.1141C28.4346 13.0866 28.3411 13.059 28.2386 13.0314C25.5908 12.2874 24.3755 10.6493 23.691 8.37736C23.6578 8.27019 23.6276 8.16609 23.5945 8.05892C28.5492 5.9309 29.291 6.84641 29.4961 7.05462ZM21.7338 7.30263C21.6554 7.34856 21.574 7.39143 21.4925 7.44042C19.1042 8.81521 17.1018 8.53045 15.0391 7.41286C14.9335 7.35775 14.834 7.30263 14.7284 7.24752C16.7188 2.13721 17.8708 2.31173 18.2236 2.31173C18.495 2.31173 19.5595 2.17395 21.7338 7.30263Z" fill="url(#paint0_linear_9151_5349)"/>
<defs>
<linearGradient id="paint0_linear_9151_5349" x1="18.2191" y1="37" x2="18.2191" y2="0" gradientUnits="userSpaceOnUse">
<stop stop-color="#007DF7"/>
<stop offset="0.5028" stop-color="#46DF83"/>
<stop offset="1" stop-color="#F8DA49"/>
</linearGradient>
</defs>
</svg>
