<svg width="108" height="37" viewBox="0 0 108 37" fill="none" xmlns="http://www.w3.org/2000/svg">
<path d="M18.2284 0C17.3478 0 15.3816 0.232704 13.3641 6.54328C7.32981 3.57324 6.00594 4.74288 5.34552 5.41956C4.72731 6.04725 3.49692 7.62719 6.45226 13.5183C0.179705 15.6861 0.0078125 17.8754 0.0078125 18.5C0.0078125 19.0818 0.240017 21.3353 6.43417 23.4266C3.50597 29.4708 4.90825 31.1426 5.33948 31.5866C5.74358 31.9969 7.4806 33.4237 13.3099 30.4567C15.4178 36.8255 17.381 37 18.2254 37C19.1059 37 21.0691 36.7673 23.0806 30.4843C29.0033 33.4758 30.5141 32.1898 31.1082 31.5866C31.7264 30.9558 32.9568 29.3789 30.0015 23.4817C36.274 21.3139 36.4459 19.1246 36.4459 18.5C36.4459 17.9182 36.2137 15.6647 30.0196 13.5734C32.9478 7.53228 31.5455 5.85742 31.1082 5.41956C30.7011 5.00927 28.9611 3.57936 23.1137 6.56165C20.9183 0.119414 19.1662 0 18.2284 0ZM6.95587 7.05462C7.15189 6.85559 7.81232 5.9952 12.9148 8.06198C12.8907 8.15078 12.8635 8.23651 12.8424 8.33143C12.1096 11.0198 10.5113 12.2966 8.25864 12.9488C8.14404 12.9825 8.03548 13.0131 7.92691 13.0468C5.77072 8.00993 6.70859 7.30876 6.95587 7.05462ZM22.1276 8.72335C22.1819 8.6958 22.2332 8.6713 22.2874 8.64987C22.3206 8.72948 22.3478 8.80602 22.3779 8.88563C23.4213 11.577 25.092 13.3805 27.794 14.3848C27.8543 14.4093 27.9086 14.4277 27.9629 14.4491C27.9267 14.5287 27.8935 14.6022 27.8574 14.6849C26.6722 17.3181 26.5968 19.8381 27.8574 22.4652C27.8845 22.5203 27.9086 22.5754 27.9358 22.6305C27.8574 22.6642 27.7759 22.6917 27.6975 22.7224C25.0317 23.7267 23.2193 25.4505 22.2814 28.2123C22.2633 28.2736 22.2392 28.3287 22.2211 28.3869C22.1427 28.3501 22.0673 28.3165 21.9829 28.2797C19.3804 27.0948 16.9317 27.0488 14.3201 28.2797C14.2658 28.3073 14.2115 28.3318 14.1603 28.3532C14.1271 28.2736 14.1 28.197 14.0698 28.1113C13.0535 25.4107 11.3557 23.6164 8.65369 22.6121C8.59337 22.5876 8.53909 22.5693 8.48481 22.5478C8.51798 22.4682 8.55417 22.3947 8.59036 22.3151C9.77551 19.6819 9.82979 17.1773 8.59036 14.5348C8.56322 14.4797 8.53909 14.4246 8.51195 14.3695C8.59036 14.3358 8.67178 14.3083 8.75019 14.2776C11.419 13.2703 13.2043 11.5342 14.1723 8.78153C14.1904 8.72642 14.2145 8.6713 14.2326 8.61619C14.311 8.64987 14.3864 8.68661 14.4709 8.71723C17.0764 9.88075 19.5191 9.95424 22.1276 8.72335ZM2.28463 18.5C2.28463 18.1754 2.12178 17.0303 7.18506 14.9115C7.23633 15.0002 7.28458 15.0921 7.33585 15.1809C8.68987 17.6059 8.44259 19.6574 7.3087 21.7334C7.25442 21.8313 7.20316 21.9263 7.14888 22.0242C2.17305 19.9758 2.28463 18.797 2.28463 18.5ZM6.95587 29.9484C6.72668 29.7157 5.81596 29.0238 7.92088 23.8889C8.01738 23.9165 8.11087 23.9441 8.2134 23.9716C10.8611 24.7157 12.1126 26.3385 12.761 28.6257C12.7942 28.7359 12.8243 28.8431 12.8515 28.9503C7.90279 31.0752 7.16094 30.1597 6.95587 29.9484ZM18.2284 34.6883C17.96 34.6883 16.8713 34.9669 14.7031 29.7066C14.7845 29.6606 14.872 29.6086 14.9594 29.5626C17.3478 28.1879 19.3683 28.4389 21.4129 29.5902C21.5185 29.6514 21.621 29.7096 21.7265 29.7647C19.7875 34.8322 18.4877 34.6883 18.2284 34.6883ZM29.5039 29.9484C29.3139 30.1413 28.7349 31.1181 23.542 28.9595C23.5691 28.8676 23.5962 28.7696 23.6204 28.6716C24.3532 25.9833 25.9515 24.7065 28.2042 24.0543C28.3218 24.0206 28.4364 23.9839 28.551 23.9532C30.7011 28.935 29.6909 29.7617 29.5039 29.9484ZM34.1721 18.5C34.1721 18.8246 34.335 19.9697 29.2717 22.0885C29.2204 21.9998 29.1752 21.914 29.1269 21.8191C27.7729 19.3941 28.0202 17.3426 29.1541 15.2666C29.2084 15.1656 29.2626 15.0676 29.3139 14.9696C34.2867 17.0242 34.1721 18.2061 34.1721 18.5ZM29.5039 7.05462C29.7331 7.28732 30.6438 7.97931 28.5389 13.1141C28.4424 13.0866 28.3489 13.059 28.2464 13.0314C25.5986 12.2874 24.3833 10.6493 23.6988 8.37736C23.6656 8.27019 23.6354 8.16609 23.6023 8.05892C28.557 5.9309 29.2988 6.84641 29.5039 7.05462ZM21.7416 7.30263C21.6632 7.34856 21.5818 7.39143 21.5004 7.44042C19.112 8.81521 17.1096 8.53045 15.0469 7.41286C14.9413 7.35775 14.8418 7.30263 14.7363 7.24752C16.7266 2.13721 17.8786 2.31173 18.2314 2.31173C18.5028 2.31173 19.5673 2.17395 21.7416 7.30263Z" fill="url(#paint0_linear_1043_11938)"/>
<path fill-rule="evenodd" clip-rule="evenodd" d="M48.5479 24.1157C48.5479 24.4372 48.7951 24.7005 49.0997 24.7005H58.3336C58.3759 24.7005 58.409 24.6637 58.409 24.6209V23.785C58.409 23.7421 58.3759 23.7054 58.3336 23.7054H49.8325C49.733 23.7054 49.6516 23.6196 49.6516 23.5125V18.8155C49.6516 18.7084 49.733 18.6257 49.8325 18.6257H57.7697C57.8119 18.6257 57.8451 18.5889 57.8451 18.5461V17.7347C57.8451 17.6918 57.8119 17.6551 57.7697 17.6551H49.8325C49.733 17.6551 49.6516 17.5693 49.6516 17.4652V13.4909C49.6516 13.3837 49.733 13.301 49.8325 13.301H58.207C58.2492 13.301 58.2824 13.2643 58.2824 13.2214V12.3825C58.2824 12.3396 58.2492 12.3029 58.207 12.3029H49.0997C48.7951 12.3029 48.5479 12.5662 48.5479 12.8877V24.1157Z" fill="white"/>
<path fill-rule="evenodd" clip-rule="evenodd" d="M63.9069 24.6973H73.1227C73.1649 24.6973 73.2011 24.6606 73.2011 24.6177V23.7818C73.2011 23.7359 73.1649 23.7022 73.1227 23.7022H64.5613C64.4587 23.7022 64.3743 23.6165 64.3743 23.5093V12.3823C64.3743 12.3395 64.3381 12.3027 64.2959 12.3027H63.4153C63.3731 12.3027 63.3369 12.3395 63.3369 12.3823V24.1155C63.3399 24.437 63.5932 24.6973 63.9069 24.6973Z" fill="white"/>
<path fill-rule="evenodd" clip-rule="evenodd" d="M96.7557 20.1412L100.04 13.5918C100.076 13.5244 100.148 13.4999 100.203 13.4999C100.26 13.4999 100.332 13.5244 100.365 13.5918L103.643 20.1412C103.674 20.1994 103.671 20.2729 103.637 20.328C103.604 20.3862 103.544 20.4229 103.478 20.4229H96.9156C96.8522 20.4229 96.7919 20.3892 96.7588 20.331C96.7256 20.2729 96.7256 20.2024 96.7557 20.1412ZM96.225 21.3966H104.174C104.244 21.3966 104.304 21.4364 104.337 21.4976L105.911 24.6545C105.923 24.682 105.95 24.6973 105.981 24.6973H106.931C106.958 24.6973 106.982 24.682 106.997 24.6575C107.009 24.633 107.012 24.6024 107 24.5779L101.141 12.9029C101.11 12.8416 100.821 12.2997 100.197 12.2997C99.5603 12.2997 99.2678 12.8753 99.2557 12.8998L93.3993 24.581C93.3873 24.6055 93.3873 24.6361 93.4023 24.6606C93.4174 24.6851 93.4415 24.7004 93.4687 24.7004H94.4186C94.4488 24.7004 94.4729 24.6851 94.488 24.6575L96.0622 21.5038C96.0953 21.4364 96.1556 21.3966 96.225 21.3966Z" fill="white"/>
<path fill-rule="evenodd" clip-rule="evenodd" d="M88.1981 20.3464C88.0232 20.031 87.7849 19.7462 87.4894 19.5013C87.1939 19.2594 86.844 19.042 86.446 18.8583C86.0509 18.6746 85.6257 18.5092 85.1824 18.3592C84.7391 18.2122 84.2777 18.0714 83.8073 17.9458C83.3368 17.8172 82.8785 17.6917 82.4352 17.5662C82.0039 17.4467 81.5817 17.312 81.1746 17.165C80.7826 17.0242 80.4328 16.865 80.1402 16.6904C79.8477 16.519 79.6155 16.3169 79.4436 16.0934C79.2717 15.8699 79.1873 15.6157 79.1873 15.3157C79.1873 14.9574 79.2748 14.6573 79.4587 14.4001C79.6397 14.1429 79.905 13.9256 80.2488 13.7571C80.5836 13.5918 80.9997 13.503 81.5214 13.4173C82.0009 13.3407 82.5528 13.2979 83.1619 13.2979H87.4683C87.4864 13.2979 87.5045 13.2887 87.5195 13.2734C87.5316 13.2581 87.5407 13.2397 87.5407 13.2183V12.3793C87.5407 12.3364 87.5075 12.2997 87.4713 12.2997H87.4019H83.168C82.7458 12.2997 81.5124 12.3303 80.8158 12.514C80.4479 12.6028 80.095 12.7283 79.7723 12.8814C79.4467 13.0345 79.1602 13.2305 78.9189 13.4571C78.6777 13.6837 78.4816 13.9562 78.3429 14.2715C78.2042 14.5839 78.1318 14.9482 78.1318 15.3524C78.1318 15.7627 78.2193 16.1271 78.3942 16.4394C78.5691 16.7486 78.8073 17.0242 79.1029 17.26C79.3954 17.4927 79.7452 17.7009 80.1433 17.8785C80.5383 18.053 80.9635 18.2122 81.4008 18.35C81.8381 18.4878 82.2995 18.6194 82.7699 18.7389C83.2403 18.8583 83.6987 18.9807 84.136 19.1032C84.5793 19.2288 85.0015 19.3665 85.3905 19.5105C85.7855 19.6544 86.1324 19.8228 86.4249 20.0095C86.7174 20.1963 86.9496 20.4168 87.1215 20.6617C87.2934 20.9097 87.3748 21.1884 87.3748 21.516C87.3748 21.9263 87.2693 22.2631 87.0551 22.5448C86.844 22.8265 86.5425 23.0561 86.1595 23.2307C85.7644 23.4113 85.2819 23.494 84.7844 23.5705C84.2988 23.6471 83.7319 23.6869 83.0504 23.693H78.2645C78.2253 23.693 78.1952 23.7298 78.1952 23.7726V24.6116C78.1952 24.6575 78.2253 24.6912 78.2645 24.6912L83.0172 24.6943C83.4303 24.6943 83.8586 24.6759 84.2838 24.6361C84.712 24.5993 85.1311 24.532 85.5322 24.4401L85.6227 24.4187C85.9876 24.336 86.3344 24.2533 86.6661 24.1064C87.022 23.9472 87.3326 23.742 87.598 23.5001C87.8633 23.2582 88.0744 22.9643 88.2312 22.6305C88.3881 22.2937 88.4665 21.8957 88.4665 21.4456C88.4604 21.0322 88.373 20.6617 88.1981 20.3464Z" fill="white"/>
<defs>
<linearGradient id="paint0_linear_1043_11938" x1="18.2269" y1="37" x2="18.2269" y2="0" gradientUnits="userSpaceOnUse">
<stop stop-color="#007DF7"/>
<stop offset="0.5028" stop-color="#46DF83"/>
<stop offset="1" stop-color="#F8DA49"/>
</linearGradient>
</defs>
</svg>
